<svg xmlns="http://www.w3.org/2000/svg" style="display:none">
<symbol id="i-book" viewBox="0 0 512 512"><path d="M42 49L42 49Q48 48 71 49L71 49Q145 52 188 68L188 68Q205 74 220.5 84.5Q236 95 239 100L239 100Q240 103 240 274.5Q240 446 239 447L239 447Q236 449 229 443L229 443Q193 413 125 404L125 404Q102 401 67 400L67 400Q41 400 36 398L36 398Q24 393 19 380L19 380L17 375L17 223L17 71L19 66Q26 51 42 49ZM447 48L447 48Q447 48 447 48L447 48Q455 48 460 48L460 48Q483 47 493 66L493 66Q493 66 495 71L495 71L495 224L495 377L493 382Q487 393 476 398L476 398Q471 400 446 400L446 400Q412 401 387 404L387 404Q316 413 283 443L283 443Q277 449 274 447L274 447Q272 446 272 274.5Q272 103 273 100L273 100Q276 95 290.5 85Q305 75 321 69L321 69Q368 50 447 48Z"/></symbol>
<symbol id="i-calculator" viewBox="0 0 512 512"><path d="M132 34L132 34Q137 32 256 32Q375 32 380 34L380 34Q406 40 414 68L414 68Q416 73 416 256Q416 439 414 444L414 444Q406 470 380 478L380 478Q375 480 256 480Q137 480 132 478L132 478Q107 471 98 447L98 447L96 440L96 256L96 72L98 65Q103 53 112 45Q121 37 132 34ZM359 82L359 82Q355 80 256 80Q157 80 153 82L153 82Q148 84 146 90L146 90Q144 93 144 128Q144 163 146 167L146 167Q148 172 154 174L154 174Q157 176 256 176Q355 176 359 174L359 174Q364 172 366 166L366 166Q368 163 368 128Q368 93 366 90L366 90Q364 84 359 82ZM178 226L178 226Q169 222 160 226L160 226Q145 231 144 246.5Q143 262 157 269L157 269Q166 273 174 271L174 271Q190 266 191.5 249.5Q193 233 178 226ZM267 227L267 227Q262 224 256 224L256 224Q245 224 238 232Q231 240 232 250L232 250Q234 264 246.5 270Q259 276 271 267L271 267Q279 261 280 250L280 250Q281 234 267 227ZM365.5 238Q361 229 352 225.5Q343 222 334 226L334 226Q319 233 320.5 249.5Q322 266 338 271L338 271Q346 274 355 269.5Q364 265 366 256L366 256Q370 247 365.5 238ZM177 306L177 306Q170 303 162 305L162 305Q151 308 146.5 318Q142 328 147 339L147 339Q155 356 173 351L173 351Q187 348 191 335L191 335Q193 326 189.5 317.5Q186 309 177 306ZM267 307L267 307Q258 303 249.5 305Q241 307 236 315L236 315Q227 329 237 342L237 342Q241 349 251 351L251 351Q256 353 261 351L261 351Q271 349 275.5 341.5Q280 334 280 326L280 326Q278 312 267 307ZM355 307L355 307Q342 300 330 309L330 309Q322 314 321 323L321 323Q320 326 320 368.5Q320 411 321 415L321 415Q324 425 333 429L333 429Q342 434 352 430L352 430Q361 427 366 419L366 419Q367 415 368 370L368 370Q368 332 367 324.5Q366 317 362 312L362 312Q359 309 355 307ZM178 386L178 386Q170 382 160 385L160 385Q152 388 147 397L147 397Q145 401 145 408L145 408Q145 419 152 425.5Q159 432 170 432L170 432Q180 431 186 424L186 424Q197 411 189 397L189 397Q185 390 178 386ZM267 387L267 387Q267 387 267 387L267 387Q252 379 239 391L239 391Q224 407 238 424L238 424Q245 431 256 431Q267 431 274 424L274 424Q282 415 279.5 403.5Q277 392 267 387Z"/></symbol>
<symbol id="i-flask" viewBox="0 0 512 512"><path d="M170 33L170 33Q172 32 256 32Q340 32 342 33Q344 34 347 37L347 37Q352 42 351.5 49Q351 56 345 61L345 61Q341 64 331 64L331 64L320 64L320 105Q320 151 324 161L324 161Q326 165 389.5 266Q453 367 456 372.5Q459 378 461.5 385.5Q464 393 464 404.5Q464 416 462 422L462 422Q456 446 438 461.5Q420 477 396 480L396 480Q387 480 256 480Q125 480 116 480L116 480Q80 475 60 445L60 445Q48 427 48 405L48 405Q48 390 54 376L54 376Q56 371 121 267.5Q186 164 188 161L188 161Q192 151 192 105L192 105L192 64L182 64Q173 64 169 62L169 62Q157 57 161 44L161 44Q163 36 170 33ZM287 65L287 65Q287 65 287 65L287 65Q286 64 256 64Q226 64 225.5 65Q225 66 224 109L224 109Q224 109 224 152L224 152L222 161Q219 169 215.5 176.5Q212 184 182.5 231Q153 278 153 280L153 280Q153 285 157 287L157 287Q159 288 256 288Q353 288 355 287L355 287Q359 285 359 280L359 280Q359 278 329.5 231Q300 184 296.5 176.5Q293 169 290 161L290 161Q290 161 288 152L288 152L288 109Q287 66 287 65Z"/></symbol>
<symbol id="i-globe" viewBox="0 0 512 512"><path d="M236 32L236 32Q241 32 257 32Q273 32 280 33L280 33Q328 38 369 63L369 63Q413 89 441 129.5Q469 170 478 219L478 219Q491 300 449 371L449 371Q421 419 372.5 448.5Q324 478 269 480L269 480Q169 485 97 414L97 414Q46 363 35 294L35 294Q25 239 41.5 187.5Q58 136 97 97L97 97Q136 58 187 42L187 42Q208 35 236 32ZM272 65L272 65Q230 60 187 77L187 77L176 81L172 88Q159 109 159 112L159 112Q159 112 156 115L156 115Q152 120 141 113L141 113Q133 109 131 110L131 110Q129 112 119.5 121.5Q110 131 110 131L110 131Q110 133 132 145L132 145Q140 150 141 152Q142 154 140 162L140 162Q132 192 129 226L129 226Q128 237 127 238.5Q126 240 96.5 240Q67 240 65.5 240.5Q64 241 64 255Q64 269 65 270.5Q66 272 95.5 272Q125 272 126.5 273.5Q128 275 128 283L128 283Q131 315 139 347L139 347Q142 360 142 361Q142 362 137 364L137 364Q118 374 112 379L112 379L110 381L114 386Q129 403 133 403L133 403Q134 403 141 399L141 399Q149 393 152.5 394.5Q156 396 161 405L161 405Q167 417 174 427L174 427Q178 432 197 439L197 439Q256 458 316 439L316 439Q334 432 340 424L340 424Q344 418 349 409L349 409Q356 396 358.5 394.5Q361 393 368 397L368 397Q373 400 375.5 401.5Q378 403 379 403L379 403Q380 403 391 392.5Q402 382 402 381L402 381Q402 379 380 367L380 367Q372 362 371 360.5Q370 359 374 345L374 345Q384 303 384 278L384 278Q384 274 388 273Q392 272 417 272L417 272Q446 272 447 270.5Q448 269 448 256Q448 243 447 241.5Q446 240 417 240L417 240Q392 240 388 239Q384 238 384 234L384 234Q384 221 380 195L380 195Q378 185 374 169Q370 153 370.5 151.5Q371 150 378 147L378 147Q401 134 401 132L401 132Q401 131 391.5 121.5Q382 112 380 111L380 111Q378 109 373 112L373 112Q361 120 358 119L358 119Q357 118 352 108Q347 98 342 90L342 90L336 82L325 78Q300 68 272 65ZM229 74L229 74Q235 69 238 71L238 71Q240 72 240 107L240 107L240 142L238 143Q236 144 227 143L227 143Q211 141 195 136L195 136Q188 134 186.5 132Q185 130 189 123L189 123Q206 88 229 74ZM274 71L274 71Q276 69 283 74L283 74Q301 85 316 109L316 109Q327 127 327 131L327 131Q327 134 314 137L314 137Q279 146 274 143L274 143L272 142L272 107Q272 73 274 71ZM173 165L173 165Q174 164 174.5 164Q175 164 187 167L187 167Q211 174 229 176L229 176Q237 177 238.5 178Q240 179 240 208.5Q240 238 239 239Q238 240 200.5 240Q163 240 161 239L161 239Q159 237 162 217L162 217Q167 169 173 165ZM326 167L326 167Q337 164 339 165L339 165Q341 166 345.5 186Q350 206 352 227L352 227Q352 236 351 238L351 238L350 240L312 240Q274 240 273 239Q272 238 272 208.5Q272 179 273.5 178Q275 177 283 176L283 176Q302 174 326 167ZM161 273L161 273Q163 272 200.5 272Q238 272 239 273Q240 274 240 304L240 304L240 335L238 335Q236 336 224 338L224 338Q200 340 183 346L183 346Q174 348 172 345L172 345Q167 337 162 295L162 295Q159 275 161 273ZM272 303.5Q272 274 273 273Q274 272 312 272Q350 272 351 274Q352 276 352 279.5Q352 283 351 292L351 292Q346 335 340 345L340 345Q338 348 327 345L327 345Q309 340 287 337L287 337Q275 336 273.5 334.5Q272 333 272 303.5ZM228 369L228 369Q237 368 239 370L239 370Q240 371 240 406L240 406L240 440L238 441Q234 443 222 433L222 433Q204 418 190 392L190 392Q184 381 187 378L187 378Q193 374 228 369ZM273 370L273 370Q273 370 273 370L273 370Q277 366 315 375L315 375Q327 378 327 381L327 381Q327 386 313 407L313 407Q298 429 282 440L282 440Q276 443 274 441L274 441Q272 439 272 405Q272 371 273 370Z"/></symbol>
<symbol id="i-code" viewBox="0 0 512 512"><path d="M154 124L154 124Q160 122 166 124L166 124Q182 129 181 146L181 146Q180 154 174 159L174 159Q171 163 117.5 209.5Q64 256 64 256Q64 256 115 300L115 300Q161 341 169.5 349Q178 357 180 361L180 361Q186 378 169 387L169 387Q160 392 151 387L151 387Q146 384 80.5 326.5Q15 269 14 266L14 266Q8 256 14 246L14 246Q16 242 75 190L75 190Q149 126 154 124ZM346 124L346 124Q346 124 346 124L346 124Q354 122 362 126L362 126Q365 128 430.5 185Q496 242 498 246Q500 250 500 256Q500 262 498 266L498 266Q497 269 431.5 326.5Q366 384 361 387L361 387Q352 392 343 387L343 387Q326 378 332 361L332 361Q334 357 342.5 349Q351 341 397 300L397 300Q448 256 448 256Q448 256 394.5 209.5Q341 163 338 159L338 159Q332 154 331 146L331 146Q330 129 346 124Z"/></symbol>
<symbol id="i-brush" viewBox="0 0 512 512"><path d="M410 34L410 34Q414 32 425 32.5Q436 33 442 35L442 35Q459 42 469.5 56Q480 70 480 88L480 88Q480 101 474 113L474 113Q470 121 462 129L462 129Q441 152 343 253.5Q245 355 243 357L243 357Q232 366 222 355L222 355Q219 352 217 346L217 346Q214 334 204 324L204 324Q194 314 182 311L182 311Q173 308 170 302L170 302Q166 295 170 288L170 288Q171 285 278.5 165.5Q386 46 389 43L389 43Q398 37 410 34ZM128 321L128 321Q128 321 128 321L128 321Q141 319 154 322L154 322Q173 326 187 341L187 341Q204 358 207 382Q210 406 198 431L198 431Q180 469 137 478L137 478Q121 482 104 479L104 479Q71 473 47 450L47 450Q30 433 32 424L32 424Q36 413 47 412L47 412Q63 409 66 398L66 398Q67 395 68 385L68 385Q71 360 87 343L87 343Q105 324 128 321Z"/></symbol>
<symbol id="i-briefcase" viewBox="0 0 512 512"><path d="M169 49L169 49Q174 48 259 48L259 48L344 48L350 50Q363 54 371 64L371 64Q384 78 384 101L384 101L384 112L413 112Q437 112 445 113.5Q453 115 462 120L462 120Q485 132 493 157L493 157L495 163L496 194L496 224L256 224L16 224L16 194L17 163L19 157Q27 132 50 120L50 120Q59 115 67 113.5Q75 112 99 112L99 112L128 112L128 101Q128 78 140 64L140 64Q152 51 169 49ZM348.5 87Q346 84 343 82Q340 80 256 80L256 80Q188 80 178.5 80.5Q169 81 165 85L165 85Q160 89 160 102L160 102L160 112L256 112L352 112L351 101Q351 90 348.5 87ZM17 413L16 334L16 334L16 256L95 256Q174 256 175 257Q176 258 176 264L176 264Q178 281 192 286L192 286Q196 288 256 288Q316 288 320 286L320 286Q334 281 336 264L336 264Q336 258 337 257Q338 256 417 256L417 256Q417 256 496 256L496 256L496 334L495 413L493 419Q482 452 448 462L448 462Q448 462 442 464L442 464L256 464L70 464L64 462Q30 452 19 419L19 419Q19 419 17 413L17 413Z"/></symbol>
<symbol id="i-fitness" viewBox="0 0 512 512"><path d="M149 64L149 64Q152 64 163.5 64.5Q175 65 180 66L180 66Q220 74 250 108L250 108Q255 114 256 114Q257 114 263 107L263 107Q292 74 332 66L332 66Q339 65 351.5 64.5Q364 64 371 66L371 66Q406 72 431 98L431 98Q469 136 463 195L463 195Q460 233 443 271L443 271L455 272Q471 272 476 277.5Q481 283 479 291L479 291Q478 297 473 301L473 301L470 303L447 304Q425 304 425 303.5Q425 303 427 299L427 299Q442 278 442 273L442 273Q442 272 394 272L394 272L346 272L331 243Q317 213 313 211L313 211Q301 203 292 213L292 213Q291 215 275 246L275 246L260 277L243 222Q222 152 220 149L220 149Q210 140 199 147L199 147Q195 149 173 195L173 195L150 240L104 240Q57 240 57 241L57 241Q57 245 67 266L67 266Q69 272 69 272Q69 272 56.5 272Q44 272 41 270L41 270Q35 267 33 260.5Q31 254 34 248L34 248Q39 241 50 240L50 240Q56 240 56 239Q56 238 55 231L55 231Q47 201 48 174L48 174Q50 142 66.5 116Q83 90 110 76L110 76Q126 68 141 66L141 66Q147 65 149 64ZM189 233L189 233Q189 233 189 233L189 233Q194 223 197 218Q200 213 202 209.5Q204 206 204 206Q204 206 205 206L205 206Q206 208 223.5 267.5Q241 327 243 329L243 329Q247 335 254 336Q261 337 266 332L266 332Q269 330 286 295L286 295Q286 295 304 260L304 260L314 279Q324 299 327 301L327 301Q327 301 331 303L331 303L377 304Q424 304 424 304.5Q424 305 418 313L418 313Q388 355 335 398L335 398Q288 436 269 445L269 445Q264 448 256 448L256 448Q245 447 232 438L232 438Q133 371 90 308L90 308Q70 278 70 273L70 273Q70 272 116 272L116 272Q155 272 161.5 271.5Q168 271 172 266L172 266Q174 263 189 233Z"/></symbol>
<symbol id="i-musical-notes" viewBox="0 0 512 512"><path d="M300 60L300 60Q300 60 300 60L300 60Q380 38 394 35Q408 32 415 34L415 34Q419 35 424 40L424 40Q425 41 426 42L426 42Q430 45 431 61.5Q432 78 432 175L432 175Q432 202 432 218L432 218Q432 354 431.5 371.5Q431 389 427 398L427 398Q421 410 409 417L409 417Q395 424 372 431L372 431Q359 434 346 430L346 430Q324 425 312 405L312 405Q303 389 304.5 371.5Q306 354 318 341L318 341Q324 336 328.5 333Q333 330 361.5 320Q390 310 392 309L392 309Q397 306 399 300L399 300Q400 297 400 225Q400 153 399 151.5Q398 150 396 150L396 150Q395 150 313 172Q231 194 222 196L222 196Q213 199 210 205L210 205Q208 208 208 318L208 318Q208 409 207.5 422.5Q207 436 203 445L203 445Q196 459 184 465L184 465Q162 477 142 479L142 479Q118 483 99 466Q80 449 80 425L80 425Q80 411 86 400L86 400Q93 386 106 380L106 380Q111 377 139 368L139 368Q171 357 174 351L174 351Q176 348 176 231L176 231Q176 134 176.5 120.5Q177 107 182 100L182 100Q188 91 196 88L196 88Q199 87 300 60Z"/></symbol>
<symbol id="i-terminal" viewBox="0 0 512 512"><path d="M66 34L66 34Q71 33 258 33L258 33L445 33L452 35Q466 40 477 51Q488 62 493 76L493 76L495 83L495 256L495 429L493 436Q488 450 477 461L477 461Q461 477 438 480L438 480Q430 480 256 480Q82 480 74 480L74 480Q51 477 35 461L35 461Q24 450 19 436L19 436L17 429L17 256L17 83L19 76Q31 41 66 34ZM104 98L104 98Q96 93 88 98L88 98Q76 106 82 119L82 119Q84 123 117 149L117 149Q126 156 133.5 162.5Q141 169 145.5 172.5Q150 176 150 177L150 177Q149 177 117 203Q85 229 83 231L83 231Q79 236 80.5 243Q82 250 87 253L87 253Q95 258 102 255L102 255Q105 253 145.5 220.5Q186 188 188 186L188 186Q192 182 192 176L192 176Q192 170 186.5 164.5Q181 159 148 133L148 133Q107 100 104 98ZM264 226L264 226Q264 226 264 226L264 226L261 224L224 224L187 224L184 226Q177 230 176.5 238Q176 246 181 251L181 251Q185 255 190.5 255.5Q196 256 224 256Q252 256 257.5 255.5Q263 255 267 251L267 251Q272 246 271.5 238Q271 230 264 226Z"/></symbol>
<symbol id="i-trending-up" viewBox="0 0 512 512"><path d="M345 130L345 130Q345 130 345 130L345 130Q349 128 408 128Q467 128 471 130L471 130Q478 133 480 141L480 141Q480 146 480 203L480 203Q480 203 480 260L480 260L478 264Q473 272 465 272Q457 272 451 265L451 265Q451 265 448 262L448 262L448 222L448 183L383 248Q319 312 314 315L314 315Q303 322 288 322L288 322Q277 322 271 320Q265 318 261 315Q257 312 228.5 283.5Q200 255 198 254L198 254Q192 252 186 254L186 254Q184 255 121 318Q58 381 54 383L54 383Q48 385 41 382L41 382Q35 379 33 372Q31 365 35 359L35 359Q37 355 99 294L99 294Q148 245 158.5 235.5Q169 226 177 223L177 223Q192 219 207 223L207 223Q218 227 251 260L251 260Q276 285 281.5 288.5Q287 292 294 289L294 289Q297 288 361 224L361 224Q361 224 425 160L425 160L389 160Q353 160 349 159L349 159Q340 157 337 150L337 150Q333 136 345 130Z"/></symbol>
<symbol id="i-layers" viewBox="0 0 512 512"><path d="M248 48L248 48Q265 47 282 52L282 52Q290 54 367.5 89.5Q445 125 450 129L450 129Q465 139 464 153.5Q463 168 448 178L448 178Q444 180 368.5 214.5Q293 249 287 251L287 251Q274 256 256 256Q238 256 225 251L225 251Q219 249 143.5 214.5Q68 180 64 178L64 178Q49 168 48 153.5Q47 139 62 129L62 129Q67 125 145 89.5Q223 54 228 52L228 52Q236 50 248 48ZM76 224L76 224Q85 220 85.5 220Q86 220 152.5 250.5Q219 281 225 283L225 283Q238 288 255 288L255 288Q270 288 281 285L281 285Q289 283 369 246L369 246L426 220L435 224Q450 231 456 238L456 238Q464 246 464 256L464 256Q464 271 449 281L449 281Q446 283 369 318Q292 353 286 355L286 355Q256 366 226 355L226 355Q219 353 142.5 318Q66 283 63 281L63 281Q48 271 48 256L48 256Q48 237 76 224ZM76 328L76 328Q76 328 76 328L76 328Q85 324 85.5 324Q86 324 154.5 355.5Q223 387 231 389Q239 391 256 391Q273 391 281 389Q289 387 358 355L358 355Q358 355 426 324L426 324L435 328Q450 334 456 342L456 342Q467 353 463.5 366Q460 379 444 388L444 388Q433 394 360.5 426.5Q288 459 283 460L283 460Q256 468 229 460L229 460Q224 459 147 424Q70 389 65 386L65 386Q51 378 48.5 365Q46 352 56 342L56 342Q62 335 76 328Z"/></symbol>
<symbol id="i-chatbubbles" viewBox="0 0 512 512"><path d="M268 33L268 33Q273 33 293.5 33Q314 33 324 35L324 35Q385 46 428 89L428 89Q480 141 480 214L480 214Q480 244 471 271L471 271Q463 294 451 312L451 312L447 318L455 348Q462 373 463 379.5Q464 386 461 392L461 392Q455 405 440 405L440 405Q435 405 404 394Q373 383 371 382.5Q369 382 359 386L359 386Q308 403 270 399L270 399Q221 395 181 367.5Q141 340 119 297L119 297Q101 258 101 216Q101 174 119 137L119 137Q139 95 179 67Q219 39 268 33ZM64 217L64 217Q64 217 64 217L64 217Q73 214 80 221L80 221Q84 225 86 240L86 240Q90 272 104.5 302.5Q119 333 143 357L143 357Q186 399 246 412L246 412Q257 414 281 416L281 416Q295 418 299 425L299 425Q305 434 297 442L297 442Q293 447 277 454L277 454Q243 468 209 469L209 469Q179 470 148 460L148 460Q139 457 137 457Q135 457 106 469L106 469Q82 478 75.5 479.5Q69 481 62 478L62 478Q57 475 52.5 469Q48 463 48 457L48 457Q48 455 53.5 425.5Q59 396 58.5 394Q58 392 54 384L54 384Q17 320 41 251L41 251Q46 236 52 228L52 228Q58 219 64 217Z"/></symbol>
<symbol id="i-stats-chart" viewBox="0 0 512 512"><path d="M173 19L173 19L179 16L201 16Q223 17 227 18L227 18Q234 23 238 31L238 31Q240 35 240 256L240 256L240 477L238 482Q233 491 224 494L224 494Q221 496 199 495.5Q177 495 174 494L174 494Q166 490 162 481L162 481L160 477L160 256L160 35L162 31Q165 23 173 19ZM399 98L399 98Q402 96 424 96Q446 96 450 98L450 98Q458 102 462 111L462 111Q464 114 464 296L464 296L464 477L461 482Q459 487 456 490L456 490Q449 496 422 496L422 496Q404 495 399.5 494Q395 493 390 488L390 488Q390 487 389 486L389 486Q385 483 384.5 464.5Q384 446 384 338L384 338Q384 311 384 296L384 296Q384 116 386 112L386 112Q389 102 399 98ZM289 209L289 209Q291 208 312 208L312 208L333 208L339 211Q347 215 351 223L351 223Q352 227 352 352L352 352L352 477L350 481Q346 490 338 494L338 494Q335 495 313 495.5Q291 496 288 494L288 494Q279 491 274 482L274 482L272 477L272 352Q272 227 274 223L274 223Q279 212 289 209ZM67 305L67 305Q67 305 67 305L67 305Q70 304 90 304Q110 304 113 306L113 306Q121 309 125 317L125 317Q125 317 128 321L128 321L128 398Q128 463 127.5 472.5Q127 482 122 487.5Q117 493 112.5 494Q108 495 90 496L90 496Q63 496 56 490L56 490Q53 487 51 482L51 482Q51 482 48 477L48 477L48 402Q48 339 48.5 329Q49 319 53 314L53 314Q58 306 67 305Z"/></symbol>
<symbol id="i-trophy" viewBox="0 0 512 512"><path d="M135 34L135 34Q139 33 257 32.5Q375 32 379 34L379 34Q393 39 398 53L398 53Q400 58 400 68Q400 78 401.5 79Q403 80 435.5 80Q468 80 471 82L471 82Q482 88 480 123L480 123Q476 163 456.5 194Q437 225 409 236L409 236Q401 238 400 239.5Q399 241 397 248L397 248Q385 292 335 325L335 325Q309 342 280 349L280 349Q274 350 273 355.5Q272 361 272 400L272 400Q272 446 273 447Q274 448 307 448L307 448Q334 448 339.5 449Q345 450 348 454L348 454Q354 461 351 469.5Q348 478 339 480L339 480Q334 480 253 480L253 480Q186 480 177 479.5Q168 479 165 475L165 475Q160 470 160 464L160 464Q160 456 167 451L167 451L171 448L204 448Q238 448 239 447Q240 446 240 400L240 400Q240 361 239 355.5Q238 350 232 349L232 349Q203 342 177 325L177 325Q127 292 115 248L115 248Q113 241 112 239.5Q111 238 103 236L103 236Q75 225 55.5 194Q36 163 32 123L32 123Q30 88 41 82L41 82Q44 80 76.5 80Q109 80 110.5 79Q112 78 112 68Q112 58 114 53L114 53Q120 38 135 34ZM112 157Q112 114 110 113Q108 112 88 112L88 112Q68 112 66 113Q64 114 65 125L65 125Q70 173 100 197L100 197Q105 201 107 202L107 202Q111 203 111 198L111 198Q112 193 112 157L112 157ZM447 113L447 113Q447 113 447 113L447 113Q445 112 424 112Q403 112 401.5 113Q400 114 400.5 157.5Q401 201 402 202L402 202Q405 203 414 196L414 196Q442 171 447 125L447 125Q448 115 447 113Z"/></symbol>
<symbol id="i-checkmark" viewBox="0 0 512 512"><path d="M411 113L411 113Q411 113 411 113L411 113Q416 111 420 113L420 113Q428 115 431 123L431 123Q434 131 429.5 137Q425 143 313 270.5Q201 398 199 398L199 398Q194 401 188 399L188 399Q184 398 133.5 347.5Q83 297 81 295L81 295Q77 286 83 279L83 279Q91 268 103 274L103 274Q105 275 148 318L148 318Q148 318 191 361L191 361L193 358Q195 356 299.5 236.5Q404 117 406 115.5Q408 114 411 113Z"/></symbol>
<symbol id="i-time" viewBox="0 0 512 512"><path d="M242 49L242 49Q263 47 283 50L283 50Q324 55 360.5 76Q397 97 421 130L421 130Q477 203 461 292L461 292Q452 341 421 382L421 382Q405 405 382 421L382 421Q338 454 284 462L284 462Q273 464 256 464Q239 464 228 462L228 462Q174 454 130 421L130 421Q107 405 91 382L91 382Q58 338 50 284L50 284Q46 256 50 228L50 228Q57 181 82.5 141.5Q108 102 149 78L149 78Q192 52 242 49ZM265 115L265 115Q265 115 265 115L265 115Q251 106 242 120L242 120Q242 120 240 123L240 123L240 200L240 276L242 280Q245 284 248 286L248 286Q248 286 252 288L252 288L301 288Q357 289 362 284L362 284Q368 279 367.5 270Q367 261 359 258L359 258Q355 256 314 256L314 256Q314 256 272 256L272 256L272 190L272 123L270 120Q268 117 265 115Z"/></symbol>
<symbol id="i-notifications-outline" viewBox="0 0 512 512"><path d="M242 34L242 34Q247 33 255.5 33Q264 33 270 34L270 34Q290 38 304 58L304 58Q309 65 315 79L315 79Q316 81 327 86L327 86Q366 106 384 142L384 142Q399 172 400 225L400 225Q401 260 405 278L405 278Q410 306 432 332L432 332Q444 346 446 354L446 354Q451 367 444 380Q437 393 423 398L423 398Q419 400 377 400L377 400L336 400L336 406Q332 441 306 462L306 462Q273 488 233 477L233 477Q210 470 194.5 451Q179 432 176 406L176 406L176 400L137 400Q99 400 95 399L95 399Q78 396 69.5 382.5Q61 369 66 353L66 353Q68 346 82 329L82 329Q101 306 106 284L106 284Q112 259 112 228L112 228Q112 201 114 185L114 185Q119 161 128 142L128 142Q146 105 187 85L187 85Q196 81 197 79L197 79Q203 65 208 58L208 58Q222 39 242 34ZM267 67L267 67Q258 63 250 65L250 65Q243 67 237 73L237 73Q233 78 225 95L225 95Q221 105 204 113L204 113Q170 129 157 156L157 156Q149 170 146 192L146 192Q145 198 144 223L144 223Q143 273 135 298L135 298Q127 324 107 349L107 349Q95 364 97 367L97 367Q99 368 256 368Q413 368 415 367L415 367Q417 364 405 349L405 349Q385 324 377 298L377 298Q369 273 368 222L368 222Q367 187 361 170L361 170Q348 132 308 113L308 113Q291 105 287 95L287 95Q279 78 275 73.5Q271 69 267 67ZM303 406L303 406Q303 406 303 406L303 406L304 400L256 400L208 400L208 406Q210 420 220 431.5Q230 443 244 446L244 446Q276 455 295 428L295 428Q302 418 303 406Z"/></symbol>
<symbol id="i-moon" viewBox="0 0 512 512"><path d="M163 36L163 36Q163 36 163 36L163 36Q176 30 183 34L183 34Q188 37 191 42L191 42Q193 48 188 60L188 60Q169 111 179 169L179 169Q189 228 229 271.5Q269 315 327 330L327 330Q351 336 378 336L378 336Q418 336 448 325L448 325Q463 319 468.5 320.5Q474 322 477.5 327.5Q481 333 480 338L480 338Q478 350 460 376L460 376Q449 394 434 409L434 409Q371 474 278 480L278 480Q229 483 183.5 465.5Q138 448 103 414L103 414Q50 363 36 292L36 292Q18 197 71 116L71 116Q107 63 163 36Z"/></symbol>
<symbol id="i-cloud-offline-outline" viewBox="0 0 512 512"><path d="M62 48L62 48Q66 47 72 50L72 50Q74 51 268 245.5Q462 440 463 444L463 444Q466 453 459.5 459.5Q453 466 444 463L444 463Q440 462 245.5 268Q51 74 50 72L50 72Q46 65 49 58L49 58Q52 50 59 49L59 49Q61 48 62 48ZM243 64L243 64Q246 64 260.5 64.5Q275 65 280 66L280 66Q331 74 366 110L366 110Q400 145 412 199L412 199L414 209L422 211Q454 217 477 236.5Q500 256 508 282L508 282Q518 317 506 351L506 351Q499 368 485 383L485 383Q475 394 468 394L468 394Q461 394 456 389L456 389Q446 377 460 364L460 364Q480 344 480 312L480 312Q480 295 473 282L473 282Q456 246 405 241L405 241Q393 239 389 235Q385 231 383 219L383 219Q379 189 367 166L367 166Q338 108 277 98L277 98Q267 96 252 97L252 97Q224 98 201 110L201 110Q190 115 184 114L184 114Q178 112 174.5 105.5Q171 99 174 92L174 92Q176 87 186 81L186 81Q209 69 233 66L233 66Q240 65 243 64ZM85 169L85 169Q85 169 85 169L85 169Q91 167 94 167L94 167Q106 167 109 179L109 179Q111 185 107 191L107 191Q105 196 95 200L95 200Q40 220 33 273L33 273Q30 294 35 312L35 312Q39 328 48 341L48 341Q58 355 72 365L72 365Q89 376 112 382L112 382Q120 383 223 384L223 384Q223 384 326 384L326 384L329 387Q337 392 336 401Q335 410 327 414L327 414Q324 416 233 416L233 416Q124 417 106 413L106 413Q79 407 58 394L58 394Q-3 355 0 282L0 282Q2 239 29 207L29 207Q50 182 85 169Z"/></symbol>
<symbol id="i-person-outline" viewBox="0 0 512 512"><path d="M237 34L237 34Q255 31 274 34L274 34Q307 39 330 62L330 62Q362 94 360 141L360 141Q359 168 346 194L346 194Q337 213 321 228L321 228Q301 247 276 254L276 254Q256 259 236 254L236 254Q210 247 189 225L189 225Q163 199 154 162L154 162Q152 153 152 138Q152 123 154 114L154 114Q160 85 179 64L179 64Q203 40 237 34ZM275 67L275 67Q259 62 244 65L244 65Q222 68 207 82L207 82Q181 106 184 144L184 144Q186 163 195 180L195 180Q208 208 232 218L232 218Q270 235 302 202L302 202Q328 175 328 137L328 137Q328 118 321 104L321 104Q307 75 275 67ZM228 290L228 290Q237 289 255.5 289Q274 289 283 290L283 290Q328 295 365 314L365 314Q448 355 463 438L463 438Q464 446 464 452L464 452Q459 476 437 480L437 480Q431 480 256 480Q81 480 75 480L75 480Q53 476 48 452L48 452Q48 446 49 438L49 438Q64 355 147 314L147 314Q184 295 228 290ZM272 321L272 321Q272 321 272 321L272 321Q208 316 155.5 345Q103 374 86 424L86 424Q80 440 80 446L80 446Q80 448 256 448Q432 448 432 446L432 446Q432 434 421 411L421 411Q403 373 363.5 349Q324 325 272 321Z"/></symbol>
<symbol id="i-play" viewBox="0 0 512 512"><path d="M128 73L128 73Q128 73 128 73L128 73Q139 71 148 76L148 76Q152 78 276 152Q400 226 405 230L405 230Q416 240 416 255.5Q416 271 405 281L405 281Q401 286 275.5 361Q150 436 147 437L147 437Q126 446 108 430L108 430Q101 422 98 412L98 412Q96 407 96 256Q96 105 98 100L98 100Q101 90 108 82L108 82Q117 74 128 73Z"/></symbol>
<symbol id="i-close" viewBox="0 0 512 512"><path d="M136 121L136 121Q136 121 136 121L136 121Q145 118 154 122L154 122Q157 124 207 173L207 173Q207 173 256 222L256 222L306 173Q347 131 354 125.5Q361 120 369 120L369 120Q375 121 378 122L378 122Q387 127 390 135L390 135Q394 145 390 154L390 154Q388 157 339 207L339 207Q339 207 290 256L290 256L339 305Q379 345 385.5 352.5Q392 360 392 367L392 367Q392 378 385 385Q378 392 367 392L367 392Q360 392 352.5 385.5Q345 379 305 339L305 339Q305 339 256 290L256 290L207 339Q167 379 159.5 385.5Q152 392 145 392L145 392Q134 392 127 385Q120 378 120 367L120 367Q120 360 126.5 352.5Q133 345 173 305L173 305Q173 305 222 256L222 256L173 207Q133 166 126.5 159Q120 152 120 144L120 144Q120 127 136 121Z"/></symbol>
<symbol id="i-phone-portrait-outline" viewBox="0 0 512 512"><path d="M165 1L165 1Q170 0 255.5 0Q341 0 346 1L346 1Q364 4 377.5 15.5Q391 27 397 44L397 44L400 52L400 256L400 460L397 468Q394 476 391 481L391 481Q379 500 360 508L360 508Q351 511 338.5 511.5Q326 512 256 512Q186 512 173.5 511.5Q161 511 152 508L152 508Q133 500 121 481L121 481Q115 470 113 458L113 458Q112 452 112 256Q112 60 113 54L113 54Q116 34 131 19Q146 4 165 1ZM194 34L194 34Q194 34 194 34L194 34Q194 32 182 33L182 33Q166 33 159 37L159 37Q151 42 147 51L147 51Q147 51 145 56L145 56L145 256L145 456L147 461Q154 477 172 480L172 480Q177 480 256 480Q335 480 340 480L340 480Q357 477 365 462L365 462Q365 462 367 456L367 456L367 256L367 56L365 50Q360 40 349 35L349 35Q345 33 331.5 32.5Q318 32 318 34L318 34Q318 42 305 51L305 51Q297 56 256 56L256 56Q217 56 210 53L210 53Q205 50 199.5 43.5Q194 37 194 34Z"/></symbol>
<symbol id="i-arrow-down" viewBox="0 0 512 512"><path d="M249 77L249 77Q249 77 249 77L249 77Q257 75 265 78.5Q273 82 277 89L277 89Q277 89 279 93L279 93L280 223Q280 353 280.5 353Q281 353 334.5 300Q388 247 393 245L393 245Q402 243 410.5 247Q419 251 422 260L422 260Q425 268 422 276L422 276Q420 281 345 356L345 356Q285 417 275 426Q265 435 257 436L257 436Q253 436 248 434Q243 432 168 358L168 358Q107 297 98 287Q89 277 88 269L88 269Q87 255 101 247L101 247Q109 242 119 245L119 245Q124 247 178 301L178 301Q178 301 232 355L232 355L232 225Q232 96 233 93L233 93Q237 82 249 77Z"/></symbol>
<symbol id="i-mail-outline" viewBox="0 0 512 512"><path d="M75 82L75 82Q81 80 255.5 80Q430 80 436 81L436 81Q451 85 462.5 96Q474 107 478 122L478 122Q480 128 480 256Q480 384 478 390L478 390Q469 422 438 430L438 430Q432 432 256 432Q80 432 74 430L74 430Q63 427 53 419L53 419Q39 408 34 390L34 390Q32 384 32 256Q32 128 34 122L34 122Q37 111 44 102L44 102Q56 86 75 82ZM434 114L434 114L430 112L258 112Q87 112 83 113L83 113Q72 115 66 126L66 126L64 129L64 256L64 383L66 386Q71 394 78 398L78 398L82 400L256 400L430 400L434 398Q442 394 446 386L446 386L448 382L448 256L448 130L446 126Q442 118 434 114ZM105 146L105 146Q105 146 105 146L105 146Q112 142 119 146L119 146Q122 147 189 200L189 200Q189 200 256 252L256 252L323 200Q390 147 393 146L393 146Q399 143 405.5 145Q412 147 414 153L414 153Q416 156 416 160Q416 164 414.5 166.5Q413 169 411 172L411 172Q407 175 336 230Q265 285 263 286L263 286Q256 290 249 286L249 286Q247 285 176 230Q105 175 101 172L101 172Q96 167 96 160L96 160Q96 150 105 146Z"/></symbol>
<symbol id="i-logo-apple" viewBox="0 0 512 512"><path d="M326 35L326 35Q334 33 337 32L337 32L340 32L341 38Q343 59 332 83Q321 107 300 122.5Q279 138 256 140L256 140L249 140L249 136Q248 127 250 116L250 116Q255 87 276 64.5Q297 42 326 35ZM161 139L161 139Q161 139 161 139L161 139Q168 137 181 138L181 138Q198 138 226 148L226 148Q251 156 263.5 156Q276 156 299 148L299 148Q313 143 322 140.5Q331 138 348 138Q365 138 371 140L371 140Q393 146 412 160L412 160Q416 163 425 172Q434 181 434 182L434 182Q434 182 427 187L427 187Q390 212 385 257L385 257Q382 286 395 313L395 313Q410 344 441 358L441 358Q441 358 448 361L448 361L445 368Q432 396 413 424L413 424Q377 476 346 479L346 479Q330 481 307 471L307 471Q281 459 255 462L255 462Q240 463 220 471L220 471Q200 480 188 480L188 480Q155 480 122 436L122 436Q85 387 71 330L71 330Q53 254 79 203L79 203Q91 179 114 161Q137 143 161 139Z"/></symbol>
</svg>
